<svg id="Capa_1" enable-background="new 0 0 512 512" height="512" viewBox="0 0 512 512" width="512" xmlns="http://www.w3.org/2000/svg"><g><circle cx="357.297" cy="351.213" fill="#d1c4e9" r="55.888"/><path d="m357.297 295.325c-30.866 0-55.888 25.022-55.888 55.888 0 7.306 1.417 14.277 3.966 20.673 6.067-2.378 11.977-5.184 17.671-8.438 5.234.653 10.515.983 15.758.983 26.511 0 52.142-8.362 73.42-23.502-4.829-25.951-27.576-45.604-54.927-45.604z" fill="#b0ade2"/><circle cx="247.248" cy="431.786" fill="#a2ddfd" r="35"/><path d="m441.931 153.406c-14.459-35.708-51.332-58.366-90.714-53.737-4.99.586-9.867-1.541-13.009-5.461-19.295-24.082-48.95-39.503-82.208-39.503s-62.913 15.421-82.208 39.502c-3.142 3.921-8.019 6.048-13.009 5.461-39.37-4.626-76.252 18.02-90.714 53.738-1.745 4.309-5.503 7.466-10.02 8.566-30.158 7.348-52.549 34.521-52.549 66.941 0 42.919 38.669 74.886 80.024 68.026 4.962-.823 9.937 1.08 13.273 4.845 21.915 24.731 55.204 36.968 88.736 31.262 3.554-.605 7.225.003 10.272 1.929 16.261 10.283 35.532 16.237 56.195 16.237s39.934-5.953 56.195-16.237c3.047-1.927 6.717-2.534 10.271-1.929 33.573 5.714 66.851-6.561 88.743-31.27 3.331-3.76 8.299-5.662 13.255-4.839 41.398 6.879 80.036-25.14 80.036-68.025 0-32.42-22.391-59.593-52.549-66.941-4.517-1.099-8.275-4.255-10.02-8.565z" fill="#f8d2e3"/><path d="m287.986 346.249c-41.613-5.581-69.547-31.308-61.696-64.371 1.407-5.926-2.218-11.803-8.079-13.458-42.542-12.012-48.513-60.995-23.198-92.75 3.374-4.233 3.191-10.247-.312-14.373-22.059-25.98-17.081-56.871-.541-86.516-7.624 5.543-14.48 12.078-20.367 19.426-3.19 3.982-8.229 6.007-13.298 5.428-39.261-4.482-75.997 18.139-90.424 53.769-1.746 4.311-5.505 7.468-10.024 8.569-30.157 7.348-52.547 34.521-52.547 66.94 0 42.918 38.667 74.885 80.021 68.027 4.853-.805 9.785.875 13.034 4.569 21.962 24.973 55.479 37.321 89.215 31.496 3.471-.599 7.058.087 10.035 1.97 16.261 10.283 35.533 16.237 56.195 16.237 11.154.001 21.897-1.748 31.986-4.963z" fill="#f1b3c1"/><g><g fill="#fff"><ellipse cx="182.744" cy="238.298" rx="27.03" ry="21.525"/><ellipse cx="329.256" cy="238.298" rx="27.03" ry="21.525"/></g></g><path d="m247.248 389.286c-23.434 0-42.5 19.065-42.5 42.499 0 32.879 35.876 53.185 63.998 36.668 3.571-2.098 4.766-6.694 2.668-10.265-2.097-3.572-6.694-4.767-10.266-2.669-18.222 10.702-41.4-2.497-41.4-23.734 0-15.163 12.337-27.499 27.5-27.499 16.411 0 29.206 14.35 27.318 30.673-.474 4.115 2.478 7.835 6.593 8.309 4.104.472 7.835-2.477 8.31-6.593 2.897-25.206-16.843-47.389-42.221-47.389zm206.478-234.601c-2.213-.538-4.023-2.069-4.843-4.094-5.737-14.169-14.681-26.334-25.731-35.887h34.609c4.143 0 7.5-3.358 7.5-7.5s-3.357-7.5-7.5-7.5h-30.293l34.665-50.266c3.427-4.968-.14-11.758-6.174-11.758h-41.649c-4.142 0-7.5 3.358-7.5 7.5s3.358 7.5 7.5 7.5h27.365c-8.553 12.412-34.407 49.852-34.883 50.633-16.817-9.252-36.453-13.444-56.452-11.094-2.355.278-4.701-.733-6.28-2.703-21.546-26.89-53.642-42.312-88.06-42.312s-66.515 15.422-88.061 42.313c-1.578 1.969-3.925 2.98-6.282 2.702-10.003-1.175-20.049-.753-29.858 1.254-4.059.83-6.675 4.793-5.845 8.851s4.793 6.677 8.851 5.844c8.245-1.686 16.689-2.039 25.102-1.052 7.531.883 14.905-2.189 19.737-8.22 18.685-23.317 46.515-36.691 76.356-36.691s57.671 13.373 76.355 36.691c4.833 6.032 12.218 9.104 19.736 8.221 35.416-4.16 69.496 16.03 82.887 49.103 2.627 6.487 8.309 11.361 15.197 13.038 27.57 6.718 46.825 31.248 46.825 59.655 0 37.929-34.177 66.792-71.307 60.626-7.454-1.238-14.971 1.477-20.098 7.264-20.362 22.982-50.874 34.124-81.871 28.85-5.499-.935-11.016.124-15.539 2.984-31.784 20.1-72.57 20.111-104.372 0-4.521-2.86-10.039-3.92-15.538-2.984-30.639 5.213-61.24-5.568-81.865-28.843-5.13-5.789-12.648-8.506-20.113-7.27-17.709 2.936-35.792-2.095-49.608-13.808-13.784-11.684-21.689-28.749-21.689-46.819 0-28.407 19.255-52.937 46.824-59.654 6.891-1.679 12.571-6.553 15.196-13.039 5.809-14.346 15.638-26.615 28.426-35.48 3.403-2.36 4.25-7.033 1.891-10.437-2.36-3.404-7.031-4.251-10.438-1.891-15.193 10.533-26.875 25.119-33.783 42.18-.819 2.023-2.63 3.554-4.843 4.093-34.31 8.36-58.273 38.883-58.273 74.228 0 22.485 9.837 43.72 26.988 58.261 17.185 14.569 39.701 20.824 61.763 17.165 2.342-.387 4.746.516 6.433 2.42 23.874 26.941 59.513 39.825 95.608 33.682 1.84-.313 3.617-.003 5.004.875 29.779 18.831 66.111 22.266 98.137 10.837.506 34.519 28.727 62.449 63.364 62.449 34.952 0 63.388-28.436 63.388-63.388 0-13.2-4.095-25.927-11.63-36.575 2.702-2.476 5.3-5.101 7.769-7.888 1.682-1.898 4.077-2.799 6.411-2.414 46.053 7.65 88.765-28.009 88.765-75.424 0-35.345-23.963-65.868-58.274-74.228zm-96.429 244.915c-28.776 0-51.558-25.204-48.015-54.248 2.349-1.261 4.658-2.606 6.921-4.038 1.387-.877 3.168-1.187 5.004-.875 27.064 4.605 54.094-1.481 76.082-16.472 5.45 7.986 8.395 17.448 8.395 27.245.001 26.682-21.706 48.388-48.387 48.388zm-43.794-175.552c7.514 0 14.657-3.253 19.601-8.926 2.722-3.123 2.396-7.86-.727-10.582-3.122-2.722-7.861-2.396-10.581.727-2.094 2.403-5.116 3.781-8.292 3.781s-6.198-1.378-8.293-3.782c-2.721-3.122-7.459-3.446-10.581-.726-3.123 2.722-3.447 7.46-.726 10.582 4.943 5.673 12.087 8.926 19.599 8.926zm47.457-22.631h29.6c4.142 0 7.5-3.358 7.5-7.5s-3.358-7.5-7.5-7.5h-15.316l20.295-29.428c3.428-4.968-.14-11.758-6.174-11.758h-27.656c-4.143 0-7.5 3.358-7.5 7.5s3.357 7.5 7.5 7.5h13.373l-20.295 29.428c-3.428 4.968.139 11.758 6.173 11.758zm-94.177 27.815c0-6.352-4.828-11.5-10.783-11.5s-10.783 5.149-10.783 11.5 4.828 11.5 10.783 11.5 10.783-5.149 10.783-11.5zm-68.286-5.184c7.512 0 14.656-3.253 19.6-8.926 2.722-3.122 2.397-7.86-.726-10.582-3.122-2.722-7.861-2.397-10.581.726-2.095 2.403-5.117 3.782-8.293 3.782s-6.198-1.378-8.292-3.781c-2.721-3.123-7.459-3.448-10.581-.727-3.123 2.721-3.449 7.458-.727 10.582 4.943 5.673 12.086 8.926 19.6 8.926z"/></g></svg>